<?xml version="1.0" encoding="utf-8"?>
<!-- Generator: Adobe Illustrator 16.0.0, SVG Export Plug-In . SVG Version: 6.00 Build 0)  -->
<!DOCTYPE svg PUBLIC "-//W3C//DTD SVG 1.1//EN" "http://www.w3.org/Graphics/SVG/1.1/DTD/svg11.dtd">
<svg version="1.1" class="fb-icon fb-icon-footer" xmlns="http://www.w3.org/2000/svg" xmlns:xlink="http://www.w3.org/1999/xlink" x="0px" y="0px"
	 width="129px" height="129px" viewBox="0 0 129 129" enable-background="new 0 0 129 129" xml:space="preserve">
<g>
	<path fill-rule="evenodd" clip-rule="evenodd" d="M56.509,0.537c5.333,0,10.665,0,15.999,0c0.918,0.316,1.813,0.765,2.758,0.929
		c30.895,5.386,53.26,31.916,53.219,63.164c-0.041,30.568-22.291,57.444-51.967,62.771c-31.465,5.648-61.638-11.677-72.224-41.589
		c-1.533-4.331-2.532-8.852-3.777-13.284c0-5.332,0-10.666,0-15.998c0.308-0.735,0.76-1.443,0.902-2.21
		C6.076,29.362,20.51,12.663,44.193,3.9C48.169,2.428,52.397,1.641,56.509,0.537z M64.707,8.334
		C33.493,8.217,8.446,33.074,8.313,64.303c-0.133,31.187,24.779,56.292,55.969,56.403c31.193,0.11,56.271-24.778,56.402-55.978
		C120.816,33.551,95.902,8.451,64.707,8.334z"/>
	<path fill-rule="evenodd" clip-rule="evenodd" d="M56.54,92.224c0-9.312,0-18.234,0-27.475c-2.084-0.146-3.828-0.269-5.817-0.408
		c0-3.14,0-6.054,0-9.241c1.853-0.234,3.599-0.456,5.31-0.673c3.09-17.804,4.708-19.117,22.112-17.707c0,2.857,0,5.756,0,8.68
		c-9.391,2.246-9.391,2.246-8.361,9.075c2.68,0.155,5.434,0.314,8.719,0.505c-0.361,3.154-0.693,6.055-1.068,9.338
		c-2.506,0.118-4.943,0.234-7.984,0.379c0,9.068,0,18.106,0,27.526C64.986,92.224,61.117,92.224,56.54,92.224z"/>
</g>
</svg>
