<?xml version="1.0" encoding="utf-8"?>
<!-- Generator: Adobe Illustrator 16.0.0, SVG Export Plug-In . SVG Version: 6.00 Build 0)  -->
<!DOCTYPE svg PUBLIC "-//W3C//DTD SVG 1.1//EN" "http://www.w3.org/Graphics/SVG/1.1/DTD/svg11.dtd">
<svg version="1.1" class="lnk-icon lnk-icon-footer" xmlns="http://www.w3.org/2000/svg" xmlns:xlink="http://www.w3.org/1999/xlink" x="0px" y="0px"
	 width="129px" height="129px" viewBox="0 0 129 129" enable-background="new 0 0 129 129" xml:space="preserve">
<g>
	<path fill-rule="evenodd" clip-rule="evenodd" d="M56.509,0.538c5.333,0,10.665,0,15.998,0c0.918,0.316,1.813,0.765,2.758,0.929
		c30.896,5.386,53.261,31.916,53.219,63.164c-0.041,30.568-22.29,57.445-51.966,62.771c-31.466,5.648-61.639-11.676-72.225-41.588
		c-1.533-4.332-2.532-8.852-3.777-13.285c0-5.332,0-10.666,0-15.998c0.308-0.734,0.76-1.443,0.902-2.209
		C6.076,29.362,20.51,12.663,44.193,3.9C48.169,2.429,52.397,1.641,56.509,0.538z M64.442,120.706
		c31.198,0.02,56.201-24.938,56.241-56.139c0.041-31.182-24.945-56.209-56.138-56.233C33.324,8.311,8.352,33.237,8.313,64.464
		C8.273,95.653,33.256,120.687,64.442,120.706z"/>
	<path fill-rule="evenodd" clip-rule="evenodd" d="M92.58,89.884c-4.054,0-7.645,0-12.024,0c0-4.152,0.002-8.232-0.001-12.313
		c-0.002-2.666,0.036-5.332-0.028-7.996c-0.097-4.004-1.205-7.416-5.934-7.758c-3.804-0.275-6.58,2.898-6.69,7.734
		c-0.151,6.637-0.037,13.281-0.037,20.275c-4.048,0-7.624,0-11.646,0c0-12.078,0-24.117,0-36.156
		c7.15-2.051,10.802-1.246,12.437,2.932c4.768-4.862,10.41-5.916,16.391-3.076c6.059,2.879,7.454,8.564,7.516,14.68
		C92.635,75.333,92.58,82.46,92.58,89.884z"/>
	<path fill-rule="evenodd" clip-rule="evenodd" d="M36.679,88.978c0-12.297,0-24.361,0-36.688c3.872,0,7.473,0,11.423,0
		c0,12.233,0,24.28,0,36.688C44.347,88.978,40.639,88.978,36.679,88.978z"/>
	<path fill-rule="evenodd" clip-rule="evenodd" d="M49.752,40.241c0.004,3.778-2.694,6.346-6.668,6.348
		c-3.958,0-6.652-2.586-6.642-6.377c0.009-3.715,2.833-6.44,6.685-6.452C46.967,33.747,49.749,36.469,49.752,40.241z"/>
</g>
</svg>
