<?xml version="1.0" encoding="utf-8"?>
<!-- Generator: Adobe Illustrator 16.0.0, SVG Export Plug-In . SVG Version: 6.00 Build 0)  -->
<!DOCTYPE svg PUBLIC "-//W3C//DTD SVG 1.1//EN" "http://www.w3.org/Graphics/SVG/1.1/DTD/svg11.dtd">
<svg version="1.1" class="pint-icon pint-icon-footer" xmlns="http://www.w3.org/2000/svg" xmlns:xlink="http://www.w3.org/1999/xlink" x="0px" y="0px"
	 width="129px" height="129px" viewBox="0 0 129 129" enable-background="new 0 0 129 129" xml:space="preserve">
<g>
	<path fill-rule="evenodd" clip-rule="evenodd" d="M56.509,1.074c5.333,0,10.665,0,15.999,0c0.918,0.316,1.813,0.765,2.758,0.929
		c30.895,5.386,53.26,31.916,53.219,63.164c-0.041,30.568-22.291,57.445-51.967,62.771c-31.465,5.648-61.638-11.676-72.224-41.588
		c-1.533-4.332-2.532-8.852-3.777-13.285c0-5.332,0-10.666,0-15.998c0.308-0.735,0.76-1.443,0.902-2.21
		C6.076,29.898,20.51,13.199,44.193,4.437C48.169,2.965,52.397,2.177,56.509,1.074z M120.684,65.053
		c0.01-31.184-25.002-56.191-56.19-56.182C33.266,8.879,8.321,33.825,8.313,65.053c-0.008,31.191,24.996,56.199,56.182,56.189
		C95.695,121.232,120.676,96.254,120.684,65.053z"/>
	<path fill-rule="evenodd" clip-rule="evenodd" d="M60.983,76.631c-2.757,7.1-5.54,14.264-8.322,21.428
		c-0.612-0.148-1.224-0.297-1.835-0.445c0-4.947-0.362-9.93,0.109-14.83c0.411-4.271,1.988-8.416,2.63-12.682
		c0.579-3.85,0.454-7.801,0.896-11.679c0.332-2.907,0.431-6.151,1.849-8.516c0.981-1.639,4.337-3.14,6.069-2.663
		c1.587,0.438,3.455,3.657,3.369,5.569c-0.176,3.914-1.432,7.815-2.523,11.642c-0.924,3.239-0.73,6.112,2.324,7.874
		c3.377,1.949,6.436,0.689,8.986-1.908c4.984-5.078,7.031-18.102,3.904-24.518c-3.758-7.713-14.9-10.075-23.043-4.884
		c-7.386,4.708-10.002,14.365-6.385,22.383c0.834,1.849,0.536,4.21,0.809,6.808c-5.358-0.514-7.088-3.664-8.377-7.106
		c-5.104-13.621,5.172-29.288,20.275-31.006c11.645-1.324,21.024,3.464,25.198,12.865c4.129,9.303,1.115,23.874-6.313,30.524
		C74.654,80.811,68.369,81.121,60.983,76.631z"/>
</g>
</svg>
